<svg width="478" height="471" xmlns="http://www.w3.org/2000/svg" xmlns:xlink="http://www.w3.org/1999/xlink" xml:space="preserve" overflow="hidden"><defs><clipPath id="clip0"><path d="M3962.51 1647.76 4308.21 1762.3 4193.67 2108 3847.97 1993.46Z" fill-rule="evenodd" clip-rule="evenodd"/></clipPath><clipPath id="clip1"><path d="M3962.51 1647.76 4308.21 1762.3 4193.67 2108 3847.97 1993.46Z" fill-rule="evenodd" clip-rule="evenodd"/></clipPath><clipPath id="clip2"><path d="M3962.51 1647.76 4308.21 1762.3 4193.67 2108 3847.97 1993.46Z" fill-rule="evenodd" clip-rule="evenodd"/></clipPath></defs><g transform="translate(-3839 -1642)"><path d="M3853 1877.5C3853 1755.17 3953.74 1656 4078 1656 4202.26 1656 4303 1755.17 4303 1877.5 4303 1999.83 4202.26 2099 4078 2099 3953.74 2099 3853 1999.83 3853 1877.5Z" stroke="#156082" stroke-width="27.5" stroke-miterlimit="8" fill="#83CBEB" fill-rule="evenodd"/><g clip-path="url(#clip0)"><g clip-path="url(#clip1)"><g clip-path="url(#clip2)"><path d="M4209.77 1785.61 4219.49 1788.83 4226.64 1767.24 4025.09 1700.47 4017.93 1722.07 4027.29 1725.18C4018.02 1766.44 4021.75 1832.38 4047.22 1867.58 4005.75 1880.61 3963.05 1931.15 3946.21 1969.91L3936.85 1966.81 3929.69 1988.41 4131.24 2055.19 4138.4 2033.58 4128.68 2030.36C4138.31 1989.22 4134.22 1923.16 4108.75 1887.96 4150.22 1874.92 4192.93 1824.36 4209.77 1785.61ZM4188.05 1778.41C4180.74 1793.83 4171.44 1808.22 4160.4 1821.23L4045.89 1783.29C4044.8 1766.25 4045.86 1749.15 4049.04 1732.38ZM4054.04 1889.27C4055.78 1888.72 4057.46 1887.96 4059.02 1887.01L4063.26 1898.87 4042.36 1961.95 3994.65 1985.92 3967.93 1977.07C3983.62 1942.49 4021.39 1899.52 4054.04 1889.27ZM4106.98 2023.14 4080.73 2014.44 4056.76 1966.73 4077.75 1903.38 4087.78 1896.72C4088.45 1898.33 4089.31 1899.86 4090.33 1901.28 4110.39 1929.01 4115.03 1986.03 4106.98 2023.14Z" fill="#156082"/></g></g></g></g></svg>