<svg width="474" height="475" xmlns="http://www.w3.org/2000/svg" xmlns:xlink="http://www.w3.org/1999/xlink" xml:space="preserve" overflow="hidden"><defs><clipPath id="clip0"><rect x="1963" y="1000" width="474" height="475"/></clipPath><clipPath id="clip1"><path d="M2101.35 1041.09 2396.41 1138.85 2298.65 1433.91 2003.59 1336.15Z" fill-rule="evenodd" clip-rule="evenodd"/></clipPath><clipPath id="clip2"><path d="M2101.35 1041.09 2396.41 1138.85 2298.65 1433.91 2003.59 1336.15Z" fill-rule="evenodd" clip-rule="evenodd"/></clipPath><clipPath id="clip3"><path d="M2101.35 1041.09 2396.41 1138.85 2298.65 1433.91 2003.59 1336.15Z" fill-rule="evenodd" clip-rule="evenodd"/></clipPath></defs><g clip-path="url(#clip0)" transform="translate(-1963 -1000)"><path d="M1963 1237.5C1963 1106.33 2069.11 1000 2200 1000 2330.89 1000 2437 1106.33 2437 1237.5 2437 1368.67 2330.89 1475 2200 1475 2069.11 1475 1963 1368.67 1963 1237.5Z" fill="#83CBEB" fill-rule="evenodd"/><g clip-path="url(#clip1)"><g clip-path="url(#clip2)"><g clip-path="url(#clip3)"><path d="M2312.39 1158.74 2320.69 1161.49 2326.79 1143.07 2154.76 1086.08 2148.66 1104.52 2156.65 1107.16C2148.73 1142.38 2151.91 1198.66 2173.65 1228.71 2138.26 1239.83 2101.81 1282.97 2087.44 1316.05L2079.45 1313.4 2073.34 1331.84 2245.37 1388.84 2251.48 1370.4 2243.18 1367.65C2251.4 1332.53 2247.91 1276.15 2226.17 1246.11 2261.57 1234.97 2298.02 1191.82 2312.39 1158.74ZM2293.86 1152.6C2287.61 1165.76 2279.68 1178.04 2270.25 1189.15L2172.51 1156.76C2171.58 1142.23 2172.49 1127.63 2175.21 1113.31ZM2179.47 1247.22C2180.96 1246.75 2182.39 1246.1 2183.73 1245.29L2187.35 1255.41 2169.51 1309.26 2128.78 1329.72 2105.97 1322.16C2119.37 1292.65 2151.61 1255.97 2179.47 1247.22ZM2224.66 1361.48 2202.26 1354.06 2181.8 1313.33 2199.71 1259.27 2208.27 1253.58C2208.85 1254.95 2209.57 1256.26 2210.45 1257.47 2227.57 1281.14 2231.53 1329.81 2224.66 1361.48Z" fill="#156082"/></g></g></g><path d="M471.118 262.051C466.727 381.907 366.005 475.51 246.149 471.118 126.293 466.727 32.6905 366.005 37.0818 246.149 41.4731 126.293 142.195 32.6908 262.051 37.0821 351.299 40.352 429.445 97.9273 459.015 182.198L495.284 177.344 454.48 227.282 392.337 191.121 428.549 186.275C391.09 89.9294 282.62 42.1923 186.274 79.6511 89.9288 117.11 42.1917 225.58 79.6505 321.925 117.109 418.271 225.579 466.008 321.925 428.549 391.548 401.48 438.409 335.604 441.144 260.953Z" stroke="#156082" stroke-width="6.875" stroke-miterlimit="8" fill="#156082" fill-rule="evenodd" transform="matrix(-0.984032 -0.177993 -0.177993 0.984032 2495.27 1032.69)"/></g></svg>